<?xml version="1.0" encoding="UTF-8" standalone="no"?>
<svg
   xmlns:dc="http://purl.org/dc/elements/1.1/"
   xmlns:cc="http://creativecommons.org/ns#"
   xmlns:rdf="http://www.w3.org/1999/02/22-rdf-syntax-ns#"
   xmlns:svg="http://www.w3.org/2000/svg"
   xmlns="http://www.w3.org/2000/svg"
   id="svg32"
   style="clip-rule:evenodd;fill-rule:evenodd;stroke-linejoin:round;stroke-miterlimit:1.41421"
   xml:space="preserve"
   version="1.1"
   viewBox="0 0 3976.3467 3887.0046"
   height="3887.0046"
   width="3976.3467">
  <metadata
   id="metadata38">
    <rdf:RDF>
      <cc:Work
   rdf:about="">
        <dc:format>image/svg+xml</dc:format>


        <dc:type
   rdf:resource="http://purl.org/dc/dcmitype/StillImage" />


      <dc:title></dc:title>

</cc:Work>


    </rdf:RDF>


  </metadata>


  <defs
   id="defs36">
      
      
      
    
    

  </defs>


  
  

  <g
   transform="translate(-1585.6129,-100.38333)"
   aria-label="≥"
   id="text12"
   style="font-size:10066.7px;font-family:Trattatello;opacity:1;fill:#8bd8bd;stroke-width:2.49739;stop-opacity:1">
  <path
     d="m 1666.1465,764.78554 -80.5336,-161.06721 171.1339,-281.8676 q 40.2668,-110.7337 110.7337,-161.0672 70.4669,-60.4002 221.4674,-60.4002 60.4002,20.1334 161.0672,40.2668 100.667,20.1334 231.5341,70.4669 80.5336,20.1334 181.2006,40.2668 100.667,20.1334 211.4007,70.4669 100.667,70.4669 181.2006,110.7337 70.4669,50.3335 130.8671,80.5336 60.4002,30.2001 80.5336,30.2001 l 191.2673,80.53361 v -20.13341 q 30.2001,10.06671 80.5336,20.13341 60.4002,10.0667 110.7337,30.2001 60.4002,20.1334 120.8004,30.2001 171.134,110.7337 281.8677,161.0672 120.8004,40.2668 251.6675,60.4002 100.667,50.3335 201.334,70.4669 100.667,20.1334 181.2006,40.26676 h 30.2001 q 20.1334,0 30.2001,10.0667 10.0667,10.0667 30.2001,20.1334 40.2668,0 100.667,20.1334 60.4002,10.0667 10.0667,10.0667 50.3335,20.1334 70.4669,30.2001 20.1334,0 70.4669,0 h 80.5336 q 50.3335,0 80.5336,30.2001 40.2668,20.1334 90.6003,20.1334 10.0667,30.2001 40.2668,30.2001 h 10.0667 q 50.3335,20.1334 80.5336,50.3335 40.2668,20.1334 60.4002,60.4002 40.2668,60.4002 50.3335,90.6004 20.1334,30.2001 20.1334,40.2668 0,10.0667 -10.0667,20.1334 0,0 0,20.1334 0,10.0667 10.0667,20.1334 20.1334,20.1334 20.1334,30.2001 0,171.1339 -100.667,201.334 -100.667,30.2001 -211.4007,30.2001 h -191.2673 q -80.5336,0 -312.0677,70.4669 -231.5341,70.4669 -493.2683,151.0005 -302.001,100.667 -654.3356,221.4674 -60.4002,60.4002 -161.0672,110.7337 -90.6003,40.2668 -171.1339,60.4002 h -30.2001 q 0,30.2001 -30.2001,30.2001 -30.2001,20.1334 -70.4669,40.2668 -30.2001,10.0667 -50.3335,30.2001 -30.2001,20.1334 -50.3335,40.2668 -120.8004,20.1334 -251.6675,70.4669 -130.8671,50.3335 -191.2673,90.6003 -60.4002,60.4002 -60.4002,30.2001 l -161.0672,60.4002 q -130.8671,60.4002 -291.9343,100.667 -151.0005,40.2668 -211.4007,40.2668 -211.4007,0 -231.5341,-120.8004 -20.1334,-120.8004 -20.1334,-251.6675 10.0667,-10.0667 20.1334,-30.2001 10.0667,-20.1334 20.1334,-20.1334 10.0667,-10.0667 10.0667,-30.2001 0,-60.4002 30.2001,-90.6003 40.2668,-30.2001 60.4002,-50.3335 140.9338,-80.5336 312.0677,-120.8004 171.1339,-40.2668 211.4007,-40.2668 70.4669,0 231.5341,-60.4002 161.0672,-60.4002 332.2011,-140.9338 171.1339,-90.6003 322.1344,-171.1339 151.0005,-80.5336 211.4007,-110.7337 80.5336,-20.1334 151.0005,-40.2668 60.4002,-20.1334 120.8004,-40.2668 60.4002,-20.1334 90.6003,-60.4002 10.0667,0 40.2668,0 40.2668,0 80.5336,-10.0667 40.2668,0 100.6671,-10.0667 0,-30.2001 -100.6671,-30.2001 h -90.6003 l -140.9338,-30.2001 q -60.4002,-50.3335 -191.2673,-100.6671 -120.8004,-50.3335 -251.6675,-90.6003 -120.8004,-40.2668 -221.4674,-60.4002 -100.667,-30.2001 -120.8004,-30.2001 -100.667,0 -201.334,-70.4669 -50.3335,-30.2001 -110.7337,-70.4669 -80.5336,-60.40016 -161.0672,-80.53356 -80.5336,-30.2001 -140.9338,-30.2001 z M 4303.622,3120.3934 q 100.667,0 221.4674,-50.3335 130.8671,-60.4002 281.8676,20.1334 110.7337,-60.4002 221.4674,-90.6003 110.7337,-40.2668 302.001,-20.1334 v 50.3335 q 0,40.2668 -20.1334,140.9338 0,30.2001 -20.1334,120.8004 -20.1334,80.5336 -60.4002,181.2006 -40.2668,90.6003 -110.7337,181.2006 -70.4669,90.6003 -171.1339,140.9338 -90.6003,-20.1334 -261.7342,-10.0667 -171.1339,0 -362.4012,-20.1334 -50.3335,-10.0667 -151.0005,-10.0667 -90.6003,0 -191.2673,10.0667 -100.6671,10.0667 -191.2674,30.2001 -90.6003,20.1334 -130.8671,50.3335 -110.7337,50.3335 -302.001,30.2001 -191.2673,-20.1334 -402.668,0 -30.2001,0 -100.667,20.1334 -70.4669,10.0667 -161.0672,30.2001 -80.5336,10.0667 -161.0672,20.1334 -80.5336,0 -130.8671,-20.1334 -110.7337,70.4669 -281.8676,60.4002 -161.0672,-10.0667 -392.6013,-60.4002 L 1615.813,3905.596 q 10.0667,-20.1334 20.1334,-80.5336 10.0667,-60.4002 30.2001,-130.8671 20.1334,-70.4669 50.3335,-140.9338 40.2668,-70.4669 90.6003,-100.667 322.1344,-80.5336 654.3355,-161.0672 342.2678,-90.6003 634.2021,-90.6003 110.7337,-60.4002 281.8676,-30.2001 171.1339,20.1334 362.4012,-20.1334 z"
     style="font-size:10066.7px;font-family:Trattatello;opacity:1;fill:#8bd8bd;stroke-width:2.49739;stop-opacity:1"
     id="path841" />
</g>


</svg>
